<mxfile host="app.diagrams.net" agent="Mozilla/5.0 (Windows NT 10.0; Win64; x64) AppleWebKit/537.36 (KHTML, like Gecko) Chrome/140.0.0.0 Safari/537.36 Edg/140.0.0.0" version="28.2.3">
  <diagram name="Page-1" id="Po6pdnGWdDNnpDeoSkIf">
    <mxGraphModel grid="1" page="1" gridSize="10" guides="1" tooltips="1" connect="1" arrows="1" fold="1" pageScale="1" pageWidth="850" pageHeight="1100" math="0" shadow="0">
      <root>
        <mxCell id="0" />
        <mxCell id="1" parent="0" />
        <mxCell id="S6eXgY8JfAe5xvFCdAYx-11" value="ShoppingCart" style="swimlane;fontStyle=1;align=center;verticalAlign=top;childLayout=stackLayout;horizontal=1;startSize=26;horizontalStack=0;resizeParent=1;resizeParentMax=0;resizeLast=0;collapsible=1;marginBottom=0;whiteSpace=wrap;html=1;" vertex="1" parent="1">
          <mxGeometry x="105" y="20" width="240" height="242" as="geometry" />
        </mxCell>
        <mxCell id="S6eXgY8JfAe5xvFCdAYx-12" value="- cartId: String&lt;br/&gt;        - userId: String&lt;br/&gt;        - items: List&amp;lt;CartItem&amp;gt;&lt;br/&gt;        - totalCost: BigDecimal&lt;br/&gt;        - discountSavings: BigDecimal&lt;br/&gt;        - shippingFee: BigDecimal&lt;br/&gt;        - finalOrderValue: BigDecimal" style="text;strokeColor=none;fillColor=none;align=left;verticalAlign=top;spacingLeft=4;spacingRight=4;overflow=hidden;rotatable=0;points=[[0,0.5],[1,0.5]];portConstraint=eastwest;whiteSpace=wrap;html=1;" vertex="1" parent="S6eXgY8JfAe5xvFCdAYx-11">
          <mxGeometry y="26" width="240" height="106" as="geometry" />
        </mxCell>
        <mxCell id="S6eXgY8JfAe5xvFCdAYx-13" value="" style="line;strokeWidth=1;fillColor=none;align=left;verticalAlign=middle;spacingTop=-1;spacingLeft=3;spacingRight=3;rotatable=0;labelPosition=right;points=[];portConstraint=eastwest;strokeColor=inherit;" vertex="1" parent="S6eXgY8JfAe5xvFCdAYx-11">
          <mxGeometry y="132" width="240" height="8" as="geometry" />
        </mxCell>
        <mxCell id="S6eXgY8JfAe5xvFCdAYx-14" value="        + addItem(product: Product, quantity: int)&lt;br/&gt;        + removeItem(productId: String)&lt;br/&gt;        + updateItemQuantity(productId: String, quantity: int)&lt;br/&gt;        + calculateSummary()&lt;br/&gt;        + checkout(): Order" style="text;strokeColor=none;fillColor=none;align=left;verticalAlign=top;spacingLeft=4;spacingRight=4;overflow=hidden;rotatable=0;points=[[0,0.5],[1,0.5]];portConstraint=eastwest;whiteSpace=wrap;html=1;" vertex="1" parent="S6eXgY8JfAe5xvFCdAYx-11">
          <mxGeometry y="140" width="240" height="102" as="geometry" />
        </mxCell>
        <mxCell id="S6eXgY8JfAe5xvFCdAYx-15" value="Product " style="swimlane;fontStyle=1;align=center;verticalAlign=top;childLayout=stackLayout;horizontal=1;startSize=26;horizontalStack=0;resizeParent=1;resizeParentMax=0;resizeLast=0;collapsible=1;marginBottom=0;whiteSpace=wrap;html=1;" vertex="1" parent="1">
          <mxGeometry x="-190" y="330" width="160" height="178" as="geometry" />
        </mxCell>
        <mxCell id="S6eXgY8JfAe5xvFCdAYx-16" value=" - productId: String&lt;br/&gt;        - name: String&lt;br/&gt;        - description: String&lt;br/&gt;        - imageUrl: String&lt;br/&gt;        - price: BigDecimal&lt;br/&gt;        - stockQuantity: int&lt;br/&gt;        - warehouseInfo: String&lt;br/&gt;        - isFeatured: boolean&lt;br/&gt;        - avgRating: double" style="text;strokeColor=none;fillColor=none;align=left;verticalAlign=top;spacingLeft=4;spacingRight=4;overflow=hidden;rotatable=0;points=[[0,0.5],[1,0.5]];portConstraint=eastwest;whiteSpace=wrap;html=1;" vertex="1" parent="S6eXgY8JfAe5xvFCdAYx-15">
          <mxGeometry y="26" width="160" height="144" as="geometry" />
        </mxCell>
        <mxCell id="S6eXgY8JfAe5xvFCdAYx-17" value="" style="line;strokeWidth=1;fillColor=none;align=left;verticalAlign=middle;spacingTop=-1;spacingLeft=3;spacingRight=3;rotatable=0;labelPosition=right;points=[];portConstraint=eastwest;strokeColor=inherit;" vertex="1" parent="S6eXgY8JfAe5xvFCdAYx-15">
          <mxGeometry y="170" width="160" height="8" as="geometry" />
        </mxCell>
        <mxCell id="S6eXgY8JfAe5xvFCdAYx-19" value="User " style="swimlane;fontStyle=1;align=center;verticalAlign=top;childLayout=stackLayout;horizontal=1;startSize=26;horizontalStack=0;resizeParent=1;resizeParentMax=0;resizeLast=0;collapsible=1;marginBottom=0;whiteSpace=wrap;html=1;" vertex="1" parent="1">
          <mxGeometry x="430" y="320" width="170" height="108" as="geometry" />
        </mxCell>
        <mxCell id="S6eXgY8JfAe5xvFCdAYx-20" value=" - userId: String&lt;br&gt;        - username: String&lt;br&gt;&lt;div&gt;- email: String&lt;/div&gt;&lt;div&gt;- carts: List&amp;lt;ShoppingCart&amp;gt;&lt;/div&gt;" style="text;strokeColor=none;fillColor=none;align=left;verticalAlign=top;spacingLeft=4;spacingRight=4;overflow=hidden;rotatable=0;points=[[0,0.5],[1,0.5]];portConstraint=eastwest;whiteSpace=wrap;html=1;" vertex="1" parent="S6eXgY8JfAe5xvFCdAYx-19">
          <mxGeometry y="26" width="170" height="74" as="geometry" />
        </mxCell>
        <mxCell id="S6eXgY8JfAe5xvFCdAYx-21" value="" style="line;strokeWidth=1;fillColor=none;align=left;verticalAlign=middle;spacingTop=-1;spacingLeft=3;spacingRight=3;rotatable=0;labelPosition=right;points=[];portConstraint=eastwest;strokeColor=inherit;" vertex="1" parent="S6eXgY8JfAe5xvFCdAYx-19">
          <mxGeometry y="100" width="170" height="8" as="geometry" />
        </mxCell>
        <mxCell id="S6eXgY8JfAe5xvFCdAYx-23" value="Cart Item" style="swimlane;fontStyle=1;align=center;verticalAlign=top;childLayout=stackLayout;horizontal=1;startSize=26;horizontalStack=0;resizeParent=1;resizeParentMax=0;resizeLast=0;collapsible=1;marginBottom=0;whiteSpace=wrap;html=1;" vertex="1" parent="1">
          <mxGeometry x="-190" y="56" width="160" height="174" as="geometry" />
        </mxCell>
        <mxCell id="S6eXgY8JfAe5xvFCdAYx-24" value="- itemId: String&lt;br/&gt;        - productId: String&lt;br/&gt;        - productName: String&lt;br/&gt;        - productImageUrl: String&lt;br/&gt;        - unitPrice: BigDecimal&lt;br/&gt;        - quantity: int&lt;br/&gt;        - subtotal: BigDecimal" style="text;strokeColor=none;fillColor=none;align=left;verticalAlign=top;spacingLeft=4;spacingRight=4;overflow=hidden;rotatable=0;points=[[0,0.5],[1,0.5]];portConstraint=eastwest;whiteSpace=wrap;html=1;" vertex="1" parent="S6eXgY8JfAe5xvFCdAYx-23">
          <mxGeometry y="26" width="160" height="114" as="geometry" />
        </mxCell>
        <mxCell id="S6eXgY8JfAe5xvFCdAYx-25" value="" style="line;strokeWidth=1;fillColor=none;align=left;verticalAlign=middle;spacingTop=-1;spacingLeft=3;spacingRight=3;rotatable=0;labelPosition=right;points=[];portConstraint=eastwest;strokeColor=inherit;" vertex="1" parent="S6eXgY8JfAe5xvFCdAYx-23">
          <mxGeometry y="140" width="160" height="8" as="geometry" />
        </mxCell>
        <mxCell id="S6eXgY8JfAe5xvFCdAYx-26" value="+ method(type): type" style="text;strokeColor=none;fillColor=none;align=left;verticalAlign=top;spacingLeft=4;spacingRight=4;overflow=hidden;rotatable=0;points=[[0,0.5],[1,0.5]];portConstraint=eastwest;whiteSpace=wrap;html=1;" vertex="1" parent="S6eXgY8JfAe5xvFCdAYx-23">
          <mxGeometry y="148" width="160" height="26" as="geometry" />
        </mxCell>
        <mxCell id="S6eXgY8JfAe5xvFCdAYx-27" value="Order " style="swimlane;fontStyle=1;align=center;verticalAlign=top;childLayout=stackLayout;horizontal=1;startSize=26;horizontalStack=0;resizeParent=1;resizeParentMax=0;resizeLast=0;collapsible=1;marginBottom=0;whiteSpace=wrap;html=1;" vertex="1" parent="1">
          <mxGeometry x="130" y="368" width="160" height="118" as="geometry" />
        </mxCell>
        <mxCell id="S6eXgY8JfAe5xvFCdAYx-28" value="- orderId: String&lt;br/&gt;        - userId: String&lt;br/&gt;        - orderDate: Date&lt;br/&gt;        - status: OrderStatus&lt;br/&gt;        - totalAmount: BigDecimal" style="text;strokeColor=none;fillColor=none;align=left;verticalAlign=top;spacingLeft=4;spacingRight=4;overflow=hidden;rotatable=0;points=[[0,0.5],[1,0.5]];portConstraint=eastwest;whiteSpace=wrap;html=1;" vertex="1" parent="S6eXgY8JfAe5xvFCdAYx-27">
          <mxGeometry y="26" width="160" height="84" as="geometry" />
        </mxCell>
        <mxCell id="S6eXgY8JfAe5xvFCdAYx-29" value="" style="line;strokeWidth=1;fillColor=none;align=left;verticalAlign=middle;spacingTop=-1;spacingLeft=3;spacingRight=3;rotatable=0;labelPosition=right;points=[];portConstraint=eastwest;strokeColor=inherit;" vertex="1" parent="S6eXgY8JfAe5xvFCdAYx-27">
          <mxGeometry y="110" width="160" height="8" as="geometry" />
        </mxCell>
        <mxCell id="S6eXgY8JfAe5xvFCdAYx-31" value="Promotion " style="swimlane;fontStyle=1;align=center;verticalAlign=top;childLayout=stackLayout;horizontal=1;startSize=26;horizontalStack=0;resizeParent=1;resizeParentMax=0;resizeLast=0;collapsible=1;marginBottom=0;whiteSpace=wrap;html=1;" vertex="1" parent="1">
          <mxGeometry x="500" y="50" width="200" height="118" as="geometry" />
        </mxCell>
        <mxCell id="S6eXgY8JfAe5xvFCdAYx-32" value="&lt;div&gt;- promoId: String&lt;/div&gt;&lt;div&gt;- description: String&lt;/div&gt;&lt;div&gt;- discountRate: double&lt;/div&gt;&lt;div&gt;- apply(cart: ShoppingCart): double&lt;/div&gt;" style="text;strokeColor=none;fillColor=none;align=left;verticalAlign=top;spacingLeft=4;spacingRight=4;overflow=hidden;rotatable=0;points=[[0,0.5],[1,0.5]];portConstraint=eastwest;whiteSpace=wrap;html=1;" vertex="1" parent="S6eXgY8JfAe5xvFCdAYx-31">
          <mxGeometry y="26" width="200" height="84" as="geometry" />
        </mxCell>
        <mxCell id="S6eXgY8JfAe5xvFCdAYx-33" value="" style="line;strokeWidth=1;fillColor=none;align=left;verticalAlign=middle;spacingTop=-1;spacingLeft=3;spacingRight=3;rotatable=0;labelPosition=right;points=[];portConstraint=eastwest;strokeColor=inherit;" vertex="1" parent="S6eXgY8JfAe5xvFCdAYx-31">
          <mxGeometry y="110" width="200" height="8" as="geometry" />
        </mxCell>
        <mxCell id="S6eXgY8JfAe5xvFCdAYx-34" value="" style="endArrow=open;endFill=1;endSize=12;html=1;rounded=0;exitX=0.5;exitY=0;exitDx=0;exitDy=0;entryX=0.44;entryY=1.005;entryDx=0;entryDy=0;entryPerimeter=0;" edge="1" parent="1" source="S6eXgY8JfAe5xvFCdAYx-27" target="S6eXgY8JfAe5xvFCdAYx-14">
          <mxGeometry width="160" relative="1" as="geometry">
            <mxPoint x="185" y="304.58000000000004" as="sourcePoint" />
            <mxPoint x="160" y="340" as="targetPoint" />
          </mxGeometry>
        </mxCell>
        <mxCell id="S6eXgY8JfAe5xvFCdAYx-39" value="" style="endArrow=none;html=1;edgeStyle=orthogonalEdgeStyle;rounded=0;exitX=1.005;exitY=0.761;exitDx=0;exitDy=0;exitPerimeter=0;entryX=-0.004;entryY=0.179;entryDx=0;entryDy=0;entryPerimeter=0;" edge="1" parent="1" source="S6eXgY8JfAe5xvFCdAYx-12" target="S6eXgY8JfAe5xvFCdAYx-20">
          <mxGeometry relative="1" as="geometry">
            <mxPoint x="360" y="130" as="sourcePoint" />
            <mxPoint x="520" y="130" as="targetPoint" />
          </mxGeometry>
        </mxCell>
        <mxCell id="S6eXgY8JfAe5xvFCdAYx-40" value="1" style="edgeLabel;resizable=0;html=1;align=left;verticalAlign=bottom;" connectable="0" vertex="1" parent="S6eXgY8JfAe5xvFCdAYx-39">
          <mxGeometry x="-1" relative="1" as="geometry" />
        </mxCell>
        <mxCell id="S6eXgY8JfAe5xvFCdAYx-41" value="1..*" style="edgeLabel;resizable=0;html=1;align=right;verticalAlign=bottom;" connectable="0" vertex="1" parent="S6eXgY8JfAe5xvFCdAYx-39">
          <mxGeometry x="1" relative="1" as="geometry">
            <mxPoint x="-10" as="offset" />
          </mxGeometry>
        </mxCell>
        <mxCell id="S6eXgY8JfAe5xvFCdAYx-42" value="" style="endArrow=diamondThin;endFill=1;endSize=24;html=1;rounded=0;exitX=0.001;exitY=0.74;exitDx=0;exitDy=0;exitPerimeter=0;entryX=1.002;entryY=0.333;entryDx=0;entryDy=0;entryPerimeter=0;" edge="1" parent="1" target="S6eXgY8JfAe5xvFCdAYx-24">
          <mxGeometry width="160" relative="1" as="geometry">
            <mxPoint x="103.48000000000023" y="117.99999999999994" as="sourcePoint" />
            <mxPoint x="-30.00000000000001" y="146.12600000000003" as="targetPoint" />
          </mxGeometry>
        </mxCell>
        <mxCell id="S6eXgY8JfAe5xvFCdAYx-44" value="1" style="text;html=1;align=center;verticalAlign=middle;resizable=0;points=[];autosize=1;strokeColor=none;fillColor=none;" vertex="1" parent="1">
          <mxGeometry x="75" y="98" width="30" height="30" as="geometry" />
        </mxCell>
        <mxCell id="S6eXgY8JfAe5xvFCdAYx-45" value="0..*" style="text;html=1;align=center;verticalAlign=middle;resizable=0;points=[];autosize=1;strokeColor=none;fillColor=none;" vertex="1" parent="1">
          <mxGeometry x="-20" y="98" width="40" height="30" as="geometry" />
        </mxCell>
        <mxCell id="S6eXgY8JfAe5xvFCdAYx-46" value="0..*" style="text;html=1;align=center;verticalAlign=middle;resizable=0;points=[];autosize=1;strokeColor=none;fillColor=none;rotation=90;" vertex="1" parent="1">
          <mxGeometry x="-130" y="230" width="40" height="30" as="geometry" />
        </mxCell>
        <mxCell id="S6eXgY8JfAe5xvFCdAYx-47" value="1" style="text;html=1;align=center;verticalAlign=middle;resizable=0;points=[];autosize=1;strokeColor=none;fillColor=none;rotation=90;" vertex="1" parent="1">
          <mxGeometry x="-125" y="290" width="30" height="30" as="geometry" />
        </mxCell>
        <mxCell id="S6eXgY8JfAe5xvFCdAYx-48" value="&lt;pre&gt;Admin&lt;/pre&gt;" style="swimlane;fontStyle=1;align=center;verticalAlign=top;childLayout=stackLayout;horizontal=1;startSize=40;horizontalStack=0;resizeParent=1;resizeParentMax=0;resizeLast=0;collapsible=1;marginBottom=0;whiteSpace=wrap;html=1;" vertex="1" parent="1">
          <mxGeometry x="85" y="-270" width="280" height="180" as="geometry" />
        </mxCell>
        <mxCell id="S6eXgY8JfAe5xvFCdAYx-49" value="&lt;pre&gt;- adminId: String&lt;br/&gt;- name: String&lt;/pre&gt;" style="text;strokeColor=none;fillColor=none;align=left;verticalAlign=top;spacingLeft=4;spacingRight=4;overflow=hidden;rotatable=0;points=[[0,0.5],[1,0.5]];portConstraint=eastwest;whiteSpace=wrap;html=1;" vertex="1" parent="S6eXgY8JfAe5xvFCdAYx-48">
          <mxGeometry y="40" width="280" height="60" as="geometry" />
        </mxCell>
        <mxCell id="S6eXgY8JfAe5xvFCdAYx-50" value="" style="line;strokeWidth=1;fillColor=none;align=left;verticalAlign=middle;spacingTop=-1;spacingLeft=3;spacingRight=3;rotatable=0;labelPosition=right;points=[];portConstraint=eastwest;strokeColor=inherit;" vertex="1" parent="S6eXgY8JfAe5xvFCdAYx-48">
          <mxGeometry y="100" width="280" height="8" as="geometry" />
        </mxCell>
        <mxCell id="S6eXgY8JfAe5xvFCdAYx-51" value="&lt;pre&gt;+ viewCart(userId: String): ShoppingCart&lt;br/&gt;+ disableCart(cartId: String)&lt;br/&gt;+ enableCart(cartId: String)&lt;/pre&gt;" style="text;strokeColor=none;fillColor=none;align=left;verticalAlign=top;spacingLeft=4;spacingRight=4;overflow=hidden;rotatable=0;points=[[0,0.5],[1,0.5]];portConstraint=eastwest;whiteSpace=wrap;html=1;" vertex="1" parent="S6eXgY8JfAe5xvFCdAYx-48">
          <mxGeometry y="108" width="280" height="72" as="geometry" />
        </mxCell>
        <mxCell id="S6eXgY8JfAe5xvFCdAYx-52" value="1" style="text;html=1;align=center;verticalAlign=middle;resizable=0;points=[];autosize=1;strokeColor=none;fillColor=none;rotation=91;" vertex="1" parent="1">
          <mxGeometry x="205" y="270" width="30" height="30" as="geometry" />
        </mxCell>
        <mxCell id="S6eXgY8JfAe5xvFCdAYx-53" value="0..1" style="text;html=1;align=center;verticalAlign=middle;resizable=0;points=[];autosize=1;strokeColor=none;fillColor=none;rotation=90;" vertex="1" parent="1">
          <mxGeometry x="200" y="338" width="40" height="30" as="geometry" />
        </mxCell>
        <mxCell id="S6eXgY8JfAe5xvFCdAYx-54" value="" style="endArrow=open;endFill=1;endSize=12;html=1;rounded=0;exitX=0.174;exitY=0.948;exitDx=0;exitDy=0;exitPerimeter=0;entryX=0.42;entryY=0.01;entryDx=0;entryDy=0;entryPerimeter=0;" edge="1" parent="1" source="S6eXgY8JfAe5xvFCdAYx-46" target="S6eXgY8JfAe5xvFCdAYx-15">
          <mxGeometry width="160" relative="1" as="geometry">
            <mxPoint x="-1" y="233" as="sourcePoint" />
            <mxPoint y="338" as="targetPoint" />
          </mxGeometry>
        </mxCell>
        <mxCell id="S6eXgY8JfAe5xvFCdAYx-55" value="" style="endArrow=open;endFill=1;endSize=12;html=1;rounded=0;exitX=0.498;exitY=1.019;exitDx=0;exitDy=0;exitPerimeter=0;" edge="1" parent="1" source="S6eXgY8JfAe5xvFCdAYx-51" target="S6eXgY8JfAe5xvFCdAYx-11">
          <mxGeometry width="160" relative="1" as="geometry">
            <mxPoint x="210" y="-49" as="sourcePoint" />
            <mxPoint x="211" y="56" as="targetPoint" />
          </mxGeometry>
        </mxCell>
        <mxCell id="S6eXgY8JfAe5xvFCdAYx-56" value="1" style="text;html=1;align=center;verticalAlign=middle;resizable=0;points=[];autosize=1;strokeColor=none;fillColor=none;rotation=90;" vertex="1" parent="1">
          <mxGeometry x="225" y="-92" width="30" height="30" as="geometry" />
        </mxCell>
        <mxCell id="S6eXgY8JfAe5xvFCdAYx-57" value="0..*" style="text;html=1;align=center;verticalAlign=middle;resizable=0;points=[];autosize=1;strokeColor=none;fillColor=none;rotation=90;" vertex="1" parent="1">
          <mxGeometry x="220" y="-22" width="40" height="30" as="geometry" />
        </mxCell>
        <mxCell id="S6eXgY8JfAe5xvFCdAYx-59" value="" style="endArrow=none;html=1;edgeStyle=orthogonalEdgeStyle;rounded=0;exitX=0.998;exitY=0.079;exitDx=0;exitDy=0;exitPerimeter=0;entryX=-0.006;entryY=-0.032;entryDx=0;entryDy=0;entryPerimeter=0;" edge="1" parent="1" source="S6eXgY8JfAe5xvFCdAYx-11" target="S6eXgY8JfAe5xvFCdAYx-32">
          <mxGeometry relative="1" as="geometry">
            <mxPoint x="380" y="190" as="sourcePoint" />
            <mxPoint x="463" y="422" as="targetPoint" />
          </mxGeometry>
        </mxCell>
        <mxCell id="S6eXgY8JfAe5xvFCdAYx-60" value="0..*" style="edgeLabel;resizable=0;html=1;align=left;verticalAlign=bottom;" connectable="0" vertex="1" parent="S6eXgY8JfAe5xvFCdAYx-59">
          <mxGeometry x="-1" relative="1" as="geometry" />
        </mxCell>
        <mxCell id="S6eXgY8JfAe5xvFCdAYx-61" value="0..*" style="edgeLabel;resizable=0;html=1;align=right;verticalAlign=bottom;" connectable="0" vertex="1" parent="S6eXgY8JfAe5xvFCdAYx-59">
          <mxGeometry x="1" relative="1" as="geometry">
            <mxPoint x="-10" as="offset" />
          </mxGeometry>
        </mxCell>
      </root>
    </mxGraphModel>
  </diagram>
</mxfile>
